<svg xmlns="http://www.w3.org/2000/svg" width="200" height="100" viewBox="0 0 200 100">
  <defs>
    <style>
      .cls-1 {
        fill: #fa311f;
        fill-rule: evenodd;
      }
    </style>
  </defs>
  <path id="jigiro" class="cls-1" d="M41.733,79.8c4.2-2.933,6.333-8.8,7.333-13.266,0.933-4.333,5.4-27.2,5.4-29.866A1.674,1.674,0,0,0,53.4,35.134,49.4,49.4,0,0,0,46.6,34a1.447,1.447,0,0,0-1.467,1.133c-1.267,6.8-4.4,26.4-5.6,31.933A14.994,14.994,0,0,1,34.8,75.2a1.259,1.259,0,0,0-.467.867,0.856,0.856,0,0,0,.267.667,24.041,24.041,0,0,0,4.8,3.2,2.472,2.472,0,0,0,1,.267A2.252,2.252,0,0,0,41.733,79.8Zm8.733-60.066a4.475,4.475,0,0,0-2.133.667,6.97,6.97,0,0,0-2.867,5.267c0,3.067,1.733,5.667,5.6,5.667,4,0,6.467-2.533,6.467-6.067C57.533,21.334,53.667,19.734,50.467,19.734Zm14.6,0a4.474,4.474,0,0,0-2.133.667,6.97,6.97,0,0,0-2.867,5.267c0,3.067,1.733,5.667,5.6,5.667,4,0,6.467-2.533,6.467-6.067C72.133,21.334,68.266,19.734,65.066,19.734ZM63.466,66.8c0.933-7.866,3.333-20.666,5.4-29.333A3.757,3.757,0,0,0,68.933,37,1.281,1.281,0,0,0,68,35.8a34.485,34.485,0,0,0-6.867-1.667,1.7,1.7,0,0,0-1.6,1.067c-1.8,5.533-5.067,23.8-5.067,29.4a1.7,1.7,0,0,0,1.067,1.6A32.83,32.83,0,0,0,62.2,67.933,1.341,1.341,0,0,0,63.466,66.8Zm5.867-11.266c0,6.467,5.067,12,9.8,12,1.933,0,4.267-2.067,6.267-4.867a0.537,0.537,0,0,1,.4-0.333,0.461,0.461,0,0,1,.267.533c0,2.8-1.667,8.867-7.133,8.867a13.02,13.02,0,0,1-5-1.2A1.569,1.569,0,0,0,73.4,70.4a1.142,1.142,0,0,0-1.067.733,23.657,23.657,0,0,0-1.267,4.733,1.577,1.577,0,0,0,.8,1.4A18.334,18.334,0,0,0,80.6,80.133c9.867,0,13.067-9.666,13.867-13.8,1.6-8.067,3.4-19.133,4.8-24.866a2.522,2.522,0,0,0,.067-0.533A1.9,1.9,0,0,0,98.6,39.4C94.333,36.667,87,33.8,84,33.8,75,33.8,69.333,44.334,69.333,55.534Zm16.466-.2c-1.933,1.8-4.467,3.6-5.867,3.6-0.6,0-1.067-1.333-1.067-3.267,0-4.6,2.4-13.733,6.733-13.733a7.971,7.971,0,0,1,2.333.533,1.055,1.055,0,0,1,.733,1.067c0,0.533-1.267,6.8-2,10.266A2.6,2.6,0,0,1,85.8,55.334Zm24.4-35.6a4.477,4.477,0,0,0-2.134.667,6.97,6.97,0,0,0-2.866,5.267c0,3.067,1.733,5.667,5.6,5.667,4,0,6.466-2.533,6.466-6.067C117.265,21.334,113.4,19.734,110.2,19.734ZM108.6,66.8c0.933-7.866,3.333-20.666,5.4-29.333A3.794,3.794,0,0,0,114.065,37a1.281,1.281,0,0,0-.933-1.2,34.472,34.472,0,0,0-6.867-1.667,1.7,1.7,0,0,0-1.6,1.067C102.865,40.734,99.6,59,99.6,64.6a1.7,1.7,0,0,0,1.066,1.6,32.828,32.828,0,0,0,6.667,1.733A1.342,1.342,0,0,0,108.6,66.8ZM128.332,39a0.868,0.868,0,0,1-.467.333c-0.2,0-.267-0.267-0.267-0.6l-0.066-2a1.55,1.55,0,0,0-1-1.533,38.234,38.234,0,0,0-6.467-1.4,1.434,1.434,0,0,0-1.467,1.133l-4.733,28.8a5.2,5.2,0,0,0-.066.667,1.706,1.706,0,0,0,.8,1.533,26.532,26.532,0,0,0,6.866,1.933,1.347,1.347,0,0,0,1.267-1.067c0.666-3.8,2.2-12.266,3.466-18a2.32,2.32,0,0,1,1.4-1.733,52.291,52.291,0,0,1,7.534-1.933,1.485,1.485,0,0,0,1.266-1.4c0.067-1.8.134-3.867,0.134-5.667,0-1.133,0-2.067-.067-2.8a1.335,1.335,0,0,0-1.2-1.067C132.8,34.2,129.665,37.4,128.332,39Zm20.734,21.133c-1.934,0-2.8-1.933-2.8-4.6,0-5.333,3.133-14.066,6.8-14.066,1.8,0,2.734,2,2.734,5C155.8,51.534,153.132,60.134,149.066,60.134Zm16.466-13.2c-0.067-2.733-.867-5.933-2.6-7.733-2.867-2.867-9.133-5.467-12.6-5.467-9.2,0-13.666,12.933-13.666,20.533,0,3.733.933,6.8,2.8,8.8C142.532,66.333,148.2,68,151.2,68c10.733,0,14.333-14.8,14.333-20.733V46.934Z"/>
</svg>
